<svg width="110" height="110" viewBox="0 0 110 110" fill="none" xmlns="http://www.w3.org/2000/svg">
<path d="M28 14.9255V8.24316C28 7.85812 28.3028 7.55566 28.6875 7.55566C29.0725 7.55566 29.375 7.85812 29.375 8.24316V14.9255C29.375 15.283 29.0725 15.613 28.6875 15.613C28.3028 15.613 28 15.283 28 14.9255Z" fill="black"/>
<path d="M8.42088 12.5877C8.11842 12.3401 8.0909 11.9002 8.36617 11.5977C8.61324 11.3226 9.02614 11.2953 9.32826 11.5427L19.6408 20.6727C19.916 20.9203 19.9436 21.3602 19.6958 21.6351C19.5585 21.8001 19.3662 21.8827 19.1735 21.8827C19.0083 21.8827 18.8435 21.8001 18.7062 21.6902L8.42088 12.5877Z" fill="black"/>
<path d="M6.90787 29.5828C6.79776 29.1978 6.99045 28.8129 7.34763 28.7028L13.2877 26.8879C13.6728 26.7778 14.0303 26.9978 14.1676 27.3553C14.2777 27.7128 14.0578 28.0979 13.7003 28.2078L7.7602 30.0229C7.67795 30.0503 7.6229 30.0503 7.56784 30.0503C7.26505 30.0503 6.99045 29.8579 6.90787 29.5828Z" fill="black"/>
<path d="M73.7881 14.5952C73.5407 14.2928 73.5682 13.8529 73.8707 13.6053C74.1731 13.3579 74.5853 13.4128 74.8331 13.6879L78.903 18.5277C79.1508 18.8303 79.0957 19.2703 78.8204 19.5178C78.6832 19.6003 78.5183 19.6553 78.3807 19.6553C78.1605 19.6553 77.9681 19.5727 77.8308 19.4077L73.7881 14.5952Z" fill="black"/>
<path d="M85.5021 18.7481L86.9046 8.0232C86.9321 7.63816 87.2897 7.36323 87.6744 7.41812C88.0322 7.47317 88.3071 7.83068 88.2521 8.1882L86.8771 18.9131C86.822 19.2706 86.5471 19.5182 86.1896 19.5182H86.107C85.722 19.4631 85.4746 19.1331 85.5021 18.7481Z" fill="black"/>
<path d="M93.5061 23.7255C93.396 23.368 93.5612 22.9556 93.9459 22.8455L101.729 20.0406C102.086 19.9305 102.471 20.0955 102.608 20.453C102.719 20.8105 102.554 21.1955 102.196 21.333L94.386 24.1381C94.3313 24.1656 94.2487 24.1656 94.1661 24.1656C93.8909 24.1656 93.6163 24.0006 93.5061 23.7255Z" fill="black"/>
<path d="M58.4447 25.9967L58.2057 25.7322C57.4967 24.9507 56.9355 24.3344 56.4547 24.0927C56.3419 24.0363 56.2292 24 56.0949 24C55.974 24 55.8344 24.0309 55.6652 24.1061C55.4342 24.231 54.9589 24.5828 54.2687 25.426C52.4727 27.6732 39.0504 46.1472 38.623 53.0022C50.7271 53.3307 62.471 53.1676 74.0377 52.7065C74.0149 52.2664 73.9356 51.9921 73.8571 51.8357C69.6623 43.199 63.1122 31.255 58.4447 25.9967Z" fill="black"/>
<path d="M23.9121 25.4577C26.1072 29.4684 34.5173 47.9148 35.3112 52.9072C35.9605 52.9299 36.6023 52.9429 37.2495 52.9626C37.7014 45.6146 51.2762 26.9688 53.201 24.5611C53.3282 24.4057 53.4407 24.3086 53.5629 24.1729C43.5888 24.215 35.0917 24.3523 27.0008 24.6054C25.8991 24.6475 24.8604 24.9743 23.9121 25.4577Z" fill="black"/>
<path d="M6.33736 50.8927C15.8153 51.9107 24.973 52.5263 33.923 52.8674C33.0122 48.1177 24.8059 29.8701 22.7437 26.1553C22.266 26.5192 21.8343 26.9055 21.5033 27.3352C17.8026 32.0255 14.1906 36.7696 7.60024 45.934C6.56194 47.387 6.16012 49.1572 6.33736 50.8927Z" fill="black"/>
<path d="M28.7274 77.0994C30.2289 71.2125 33.5597 58.0255 33.9766 54.2338C25.0995 53.898 16.0224 53.2994 6.625 52.3018C6.94122 53.3649 7.46692 54.381 8.24304 55.2507C16.2923 64.2548 22.8961 71.2146 28.7274 77.0994Z" fill="black"/>
<path d="M53.115 100.616C53.442 100.921 53.7904 101.169 54.1422 101.405C49.567 90.2477 38.8222 61.373 37.4025 54.3594C36.7211 54.3391 36.0322 54.3078 35.3484 54.2842C35.0607 57.0622 33.2963 64.7531 29.8555 78.2349C35.5616 83.9566 40.5446 88.6745 45.4397 93.3062C48.0098 95.7379 50.5396 98.1294 53.115 100.616Z" fill="black"/>
<path d="M85.0172 77.1762C88.3392 73.4476 91.6833 69.6991 95.055 65.9722C95.9171 65.0189 96.7416 64.142 97.515 63.3189C101.318 59.2715 103.746 56.5862 103.701 52.4512C95.6486 52.9869 87.6074 53.4786 79.5098 53.8591C80.0113 56.8258 81.4689 63.383 85.0172 77.1762Z" fill="black"/>
<path d="M73.9597 54.083C66.4492 54.3809 58.8874 54.5887 51.1812 54.5887C47.1073 54.5887 42.985 54.5226 38.8301 54.4118C40.4092 61.5581 51.0248 90.3077 55.6688 101.503C56.1656 100.353 56.9283 98.6478 57.8709 96.545C62.8919 85.3394 73.1668 62.3939 73.9597 54.083Z" fill="black"/>
<path d="M91.8799 27.7305C91.3582 26.905 90.6616 26.2565 89.8932 25.7314C86.7431 31.9042 79.2793 48.9624 79.2793 51.9434C79.2793 52.0778 79.2931 52.2682 79.3156 52.4933C87.4528 52.1119 95.5329 51.6176 103.625 51.0786C103.423 49.5761 102.955 47.8953 102.109 45.8821C99.3564 39.4032 95.5456 33.3621 91.8799 27.7305Z" fill="black"/>
<path d="M77.5052 24.2537C71.0687 24.2122 64.8194 24.1766 58.6191 24.1699C58.8182 24.3807 59.0052 24.5665 59.2247 24.8082L59.4691 25.0768C64.2279 30.4412 70.6598 42.1018 75.0909 51.2273C75.2766 51.5976 75.3561 52.0973 75.3857 52.652C76.2377 52.6164 77.093 52.5867 77.9437 52.5484C77.9208 52.3123 77.9054 52.102 77.9054 51.943C77.9054 48.499 85.6884 30.9491 88.7006 25.0496C87.7768 24.6078 86.7919 24.3242 85.7069 24.3034L77.5052 24.2537Z" fill="black"/>
<path d="M78.1329 53.9316C77.2081 53.9734 76.2715 53.9949 75.345 54.0334C74.639 62.4705 64.2094 85.7636 59.1249 97.1073C58.0581 99.4874 57.2323 101.333 56.7637 102.439C59.2256 102.922 61.7014 102.227 63.4487 100.439C70.4673 93.2546 77.1376 85.9138 83.9119 78.405C80.6986 65.9454 78.7617 57.7429 78.1329 53.9316Z" fill="black"/>
<path d="M19.1718 21.8708C19.0107 21.8708 18.8469 21.8144 18.7153 21.6976L8.41085 12.5788C8.12618 12.3277 8.10201 11.8926 8.35177 11.6093C8.6069 11.3246 9.03659 11.2951 9.32394 11.5502L19.6284 20.669C19.9131 20.9201 19.9372 21.3552 19.6875 21.6385C19.5505 21.7929 19.3625 21.8708 19.1718 21.8708Z" fill="black"/>
<path d="M28.6836 15.6C28.3049 15.6 27.9961 15.2925 27.9961 14.9125V8.24023C27.9961 7.86023 28.3049 7.55273 28.6836 7.55273C29.0623 7.55273 29.3711 7.86023 29.3711 8.24023V14.9125C29.3711 15.2925 29.0623 15.6 28.6836 15.6Z" fill="black"/>
<path d="M86.1956 19.5191C86.1661 19.5191 86.1365 19.5178 86.107 19.5137C85.731 19.4654 85.4651 19.1203 85.5135 18.743L86.8965 8.02631C86.9449 7.64765 87.2967 7.3697 87.6673 7.43146C88.0433 7.4798 88.3091 7.8249 88.2608 8.20087L86.8777 18.9202C86.8321 19.2667 86.5367 19.5191 86.1956 19.5191Z" fill="black"/>
<path d="M94.1628 24.1705C93.8808 24.1705 93.6176 23.9959 93.5156 23.7153C93.3867 23.3581 93.572 22.9647 93.9318 22.8358L101.715 20.0388C102.072 19.9179 102.466 20.0952 102.595 20.4537C102.724 20.8109 102.539 21.2043 102.182 21.3332L94.3937 24.1302C94.3185 24.157 94.2407 24.1705 94.1628 24.1705Z" fill="black"/>
<path d="M7.55498 30.0561C7.25957 30.0561 6.98833 29.8654 6.89702 29.57C6.78692 29.2061 6.99102 28.8221 7.35357 28.7106L13.2967 26.8925C13.6646 26.7891 14.0433 26.9879 14.1561 27.3491C14.2662 27.7116 14.0621 28.097 13.6995 28.2084L7.7564 30.0266C7.68926 30.0467 7.62212 30.0561 7.55498 30.0561Z" fill="black"/>
<path d="M78.3676 19.6659C78.1716 19.6659 77.9756 19.5826 77.8413 19.4202L73.7861 14.5835C73.5417 14.2921 73.5793 13.8584 73.872 13.6153C74.1621 13.3696 74.5945 13.4072 74.8388 13.6999L78.894 18.5366C79.1384 18.828 79.1008 19.2617 78.8081 19.5047C78.6819 19.6135 78.5234 19.6659 78.3676 19.6659Z" fill="black"/>
</svg>
