<svg width="494" height="92" viewBox="0 0 494 92" fill="none" xmlns="http://www.w3.org/2000/svg">
<g clip-path="url(#clip0_56_239)">
<path d="M43.54 5.27V11.93H26.44V68H18.25V11.93H1.06V5.27H43.54ZM97.7214 41.45C97.7214 43.01 97.6314 44.66 97.4514 46.4H58.0314C58.3314 51.26 59.9814 55.07 62.9814 57.83C66.0414 60.53 69.7314 61.88 74.0514 61.88C77.5914 61.88 80.5314 61.07 82.8714 59.45C85.2714 57.77 86.9514 55.55 87.9114 52.79H96.7314C95.4114 57.53 92.7714 61.4 88.8114 64.4C84.8514 67.34 79.9314 68.81 74.0514 68.81C69.3714 68.81 65.1714 67.76 61.4514 65.66C57.7914 63.56 54.9114 60.59 52.8114 56.75C50.7114 52.85 49.6614 48.35 49.6614 43.25C49.6614 38.15 50.6814 33.68 52.7214 29.84C54.7614 26 57.6114 23.06 61.2714 21.02C64.9914 18.92 69.2514 17.87 74.0514 17.87C78.7314 17.87 82.8714 18.89 86.4714 20.93C90.0714 22.97 92.8314 25.79 94.7514 29.39C96.7314 32.93 97.7214 36.95 97.7214 41.45ZM89.2614 39.74C89.2614 36.62 88.5714 33.95 87.1914 31.73C85.8114 29.45 83.9214 27.74 81.5214 26.6C79.1814 25.4 76.5714 24.8 73.6914 24.8C69.5514 24.8 66.0114 26.12 63.0714 28.76C60.1914 31.4 58.5414 35.06 58.1214 39.74H89.2614ZM166.942 17.78C170.782 17.78 174.202 18.59 177.202 20.21C180.202 21.77 182.572 24.14 184.312 27.32C186.052 30.5 186.922 34.37 186.922 38.93V68H178.822V40.1C178.822 35.18 177.592 31.43 175.132 28.85C172.732 26.21 169.462 24.89 165.322 24.89C161.062 24.89 157.672 26.27 155.152 29.03C152.632 31.73 151.372 35.66 151.372 40.82V68H143.272V40.1C143.272 35.18 142.042 31.43 139.582 28.85C137.182 26.21 133.912 24.89 129.772 24.89C125.512 24.89 122.122 26.27 119.602 29.03C117.082 31.73 115.822 35.66 115.822 40.82V68H107.632V18.68H115.822V25.79C117.442 23.21 119.602 21.23 122.302 19.85C125.062 18.47 128.092 17.78 131.392 17.78C135.532 17.78 139.192 18.71 142.372 20.57C145.552 22.43 147.922 25.16 149.482 28.76C150.862 25.28 153.142 22.58 156.322 20.66C159.502 18.74 163.042 17.78 166.942 17.78ZM207.647 27.77C209.267 24.95 211.667 22.61 214.847 20.75C218.087 18.83 221.837 17.87 226.097 17.87C230.477 17.87 234.437 18.92 237.977 21.02C241.577 23.12 244.397 26.09 246.437 29.93C248.477 33.71 249.497 38.12 249.497 43.16C249.497 48.14 248.477 52.58 246.437 56.48C244.397 60.38 241.577 63.41 237.977 65.57C234.437 67.73 230.477 68.81 226.097 68.81C221.897 68.81 218.177 67.88 214.937 66.02C211.757 64.1 209.327 61.73 207.647 58.91V91.4H199.457V18.68H207.647V27.77ZM241.127 43.16C241.127 39.44 240.377 36.2 238.877 33.44C237.377 30.68 235.337 28.58 232.757 27.14C230.237 25.7 227.447 24.98 224.387 24.98C221.387 24.98 218.597 25.73 216.017 27.23C213.497 28.67 211.457 30.8 209.897 33.62C208.397 36.38 207.647 39.59 207.647 43.25C207.647 46.97 208.397 50.24 209.897 53.06C211.457 55.82 213.497 57.95 216.017 59.45C218.597 60.89 221.387 61.61 224.387 61.61C227.447 61.61 230.237 60.89 232.757 59.45C235.337 57.95 237.377 55.82 238.877 53.06C240.377 50.24 241.127 46.94 241.127 43.16ZM267.567 1.4V68H259.377V1.4H267.567ZM323.105 18.68L293.405 91.22H284.945L294.665 67.46L274.775 18.68H283.865L299.345 58.64L314.645 18.68H323.105ZM347.898 68.81C344.118 68.81 340.728 68.18 337.728 66.92C334.728 65.6 332.358 63.8 330.618 61.52C328.878 59.18 327.918 56.51 327.738 53.51H336.198C336.438 55.97 337.578 57.98 339.618 59.54C341.718 61.1 344.448 61.88 347.808 61.88C350.928 61.88 353.388 61.19 355.188 59.81C356.988 58.43 357.888 56.69 357.888 54.59C357.888 52.43 356.928 50.84 355.008 49.82C353.088 48.74 350.118 47.69 346.098 46.67C342.438 45.71 339.438 44.75 337.098 43.79C334.818 42.77 332.838 41.3 331.158 39.38C329.538 37.4 328.728 34.82 328.728 31.64C328.728 29.12 329.478 26.81 330.978 24.71C332.478 22.61 334.608 20.96 337.368 19.76C340.128 18.5 343.278 17.87 346.818 17.87C352.278 17.87 356.688 19.25 360.048 22.01C363.408 24.77 365.208 28.55 365.448 33.35H357.258C357.078 30.77 356.028 28.7 354.108 27.14C352.248 25.58 349.728 24.8 346.548 24.8C343.608 24.8 341.268 25.43 339.528 26.69C337.788 27.95 336.918 29.6 336.918 31.64C336.918 33.26 337.428 34.61 338.448 35.69C339.528 36.71 340.848 37.55 342.408 38.21C344.028 38.81 346.248 39.5 349.068 40.28C352.608 41.24 355.488 42.2 357.708 43.16C359.928 44.06 361.818 45.44 363.378 47.3C364.998 49.16 365.838 51.59 365.898 54.59C365.898 57.29 365.148 59.72 363.648 61.88C362.148 64.04 360.018 65.75 357.258 67.01C354.558 68.21 351.438 68.81 347.898 68.81ZM386.55 25.43V54.5C386.55 56.9 387.06 58.61 388.08 59.63C389.1 60.59 390.87 61.07 393.39 61.07H399.42V68H392.04C387.48 68 384.06 66.95 381.78 64.85C379.5 62.75 378.36 59.3 378.36 54.5V25.43H371.97V18.68H378.36V6.26H386.55V18.68H399.42V25.43H386.55Z" fill="white"/>
<path d="M449.267 38.4185V67.4513H436.018V38.4185C436.018 37.7776 436.537 37.2563 437.18 37.2563H448.105C448.748 37.2563 449.267 37.7776 449.267 38.4185Z" fill="#329866"/>
<path d="M471.121 9.11865V67.4516H457.869V9.11865C457.869 8.47617 458.39 7.95654 459.031 7.95654H469.958C470.599 7.95654 471.121 8.47617 471.121 9.11865Z" fill="#A4D963"/>
<path d="M492.971 24.5845V67.4514H479.722V24.5845C479.722 23.942 480.241 23.4224 480.884 23.4224H491.809C492.452 23.4224 492.971 23.942 492.971 24.5845Z" fill="#DAEA69"/>
</g>
<defs>
<clipPath id="clip0_56_239">
<rect width="494" height="92" fill="white"/>
</clipPath>
</defs>
</svg>
