<svg width="51" height="50" viewBox="0 0 51 50" fill="none" xmlns="http://www.w3.org/2000/svg">
<g clip-path="url(#clip0_24_58)">
<path d="M23.7314 13.8408C23.2393 9.62341 22.7196 5.17055 22.7196 0H27.3624C27.3624 5.11248 26.8453 9.55968 26.3538 13.7818C25.9534 17.2225 25.5704 20.5137 25.4993 23.8937C27.8305 21.4621 29.8698 18.8837 32.006 16.1829C34.6399 12.8529 37.4214 9.33681 41.0773 5.6808L44.3603 8.9638C40.7451 12.5789 37.2344 15.3576 33.9015 17.9957L33.8984 17.9981C31.1836 20.1473 28.5866 22.203 26.1473 24.5417C29.5148 24.4706 32.7799 24.0896 36.2 23.6905C40.4174 23.1983 44.8705 22.6786 50.041 22.6786V27.3214C44.9288 27.3214 40.4815 26.804 36.2596 26.3127L36.2565 26.3125C32.8165 25.9122 29.5263 25.5295 26.1473 25.4583C28.5773 27.7878 31.1543 29.8261 33.8534 31.9609L33.8576 31.9645C37.1878 34.5986 40.704 37.3799 44.3603 41.0362L41.0773 44.3192C37.4621 40.7042 34.6835 37.1937 32.0458 33.8611L32.0395 33.8525L32.0343 33.8456C29.8879 31.1351 27.8346 28.5423 25.4993 26.1063C25.5704 29.4863 25.9534 32.7775 26.3538 36.2182C26.8453 40.4404 27.3624 44.8875 27.3624 50H22.7196C22.7196 44.8295 23.2393 40.3766 23.7314 36.1593L23.7324 36.1524C24.131 32.7346 24.5116 29.4715 24.5828 26.1063C22.2474 28.5423 20.1941 31.1351 18.0478 33.8456L18.0425 33.8525L18.0363 33.8611C15.3985 37.1937 12.6199 40.7042 9.00482 44.3192L5.72182 41.0362C9.378 37.3799 12.8943 34.5986 16.2244 31.9645L16.2286 31.9609C18.9278 29.8261 21.5048 27.7878 23.9348 25.4583C20.5548 25.5296 17.2634 25.9125 13.8224 26.3127C9.60052 26.804 5.15332 27.3214 0.0410156 27.3214V22.6786C5.21157 22.6786 9.66469 23.1983 13.882 23.6905C17.3021 24.0896 20.5673 24.4706 23.9348 24.5417C21.4944 22.2021 18.8964 20.1457 16.1805 17.9957C12.8476 15.3576 9.33684 12.5789 5.72182 8.9638L9.00482 5.6808C12.6606 9.33681 15.4421 12.8529 18.076 16.1829C20.2123 18.8836 22.2515 21.462 24.5828 23.8935C24.5116 20.5284 24.131 17.2654 23.7324 13.8476L23.7314 13.8408Z" fill="#DAEA69"/>
</g>
<defs>
<clipPath id="clip0_24_58">
<rect width="50" height="50" fill="white" transform="translate(0.0410156)"/>
</clipPath>
</defs>
</svg>
