<svg width="50" height="50" viewBox="0 0 50 50" fill="none" xmlns="http://www.w3.org/2000/svg">
<g clip-path="url(#clip0_24_91)">
<path d="M49.9308 26.8745H41C33.1989 26.8745 26.875 33.1985 26.875 40.9995V49.9303C39.1874 49.0173 49.0178 39.1869 49.9308 26.8745Z" fill="#FF8B00"/>
<path d="M23.1261 49.9303V40.9995C23.1261 33.1985 16.8021 26.8745 9.00106 26.8745H0.0703125C0.98323 39.1869 10.8137 49.0173 23.1261 49.9303Z" fill="#FF8B00"/>
<path d="M49.9308 23.1246C49.0178 10.8122 39.1874 0.981765 26.875 0.0688477V8.99959C26.875 16.8006 33.1989 23.1246 41 23.1246H49.9308Z" fill="#FF8B00"/>
<path d="M23.1261 0.0688477C10.8137 0.981765 0.98323 10.8122 0.0703125 23.1246H9.00106C16.8021 23.1246 23.1261 16.8006 23.1261 8.99959V0.0688477Z" fill="#FF8B00"/>
<path d="M16.9785 24.9997C20.4441 23.268 23.2685 20.4437 25 16.978C26.7316 20.4437 29.5559 23.268 33.0216 24.9997C29.5559 26.7312 26.7316 29.5555 25 33.0212C23.2685 29.5555 20.4441 26.7312 16.9785 24.9997Z" fill="#FFAA00"/>
</g>
<defs>
<clipPath id="clip0_24_91">
<rect width="50" height="50" fill="white"/>
</clipPath>
</defs>
</svg>
