<svg width="52" height="50" viewBox="0 0 52 50" fill="none" xmlns="http://www.w3.org/2000/svg">
<path d="M25.5215 13.2812C25.5215 19.7533 20.2748 25 13.8027 25H2.08398V13.2812C2.08398 6.80916 7.33064 1.5625 13.8027 1.5625C20.2748 1.5625 25.5215 6.80916 25.5215 13.2812Z" fill="#00E776"/>
<path d="M25.5215 36.7187C25.5215 30.2467 30.7682 25 37.2402 25H48.959V36.7187C48.959 43.1908 43.7123 48.4375 37.2402 48.4375C30.7682 48.4375 25.5215 43.1908 25.5215 36.7187Z" fill="#00E776"/>
<path d="M2.08398 36.7187C2.08398 43.1908 7.33064 48.4375 13.8027 48.4375H25.5215V36.7187C25.5215 30.2467 20.2748 25 13.8027 25C7.33064 25 2.08398 30.2467 2.08398 36.7187Z" fill="#00E776"/>
<path d="M48.959 13.2812C48.959 6.80916 43.7123 1.5625 37.2402 1.5625H25.5215V13.2812C25.5215 19.7533 30.7682 25 37.2402 25C43.7123 25 48.959 19.7533 48.959 13.2812Z" fill="#00E776"/>
</svg>
